<?xml version="1.0" encoding="utf-8" ?>
<!DOCTYPE svg PUBLIC "-//W3C//DTD SVG 1.1//EN" "http://www.w3.org/Graphics/SVG/1.1/DTD/svg11.dtd">
<svg height="394" version="1.1" width="515" xmlns="http://www.w3.org/2000/svg">
<ellipse cx="271" cy="22" fill="#000000" rx="8.0" ry="8.0" stroke="#000000" stroke-width="1"/>
<rect fill="#00ff" height="46" rx="16" ry="16" stroke="#00ff" stroke-width="1" width="70" x="239" y="78"/>
<rect fill="#ffffff" height="46" rx="16" ry="16" stroke="#000000" stroke-width="1" width="70" x="239" y="78"/>
<rect fill="#ffffff" height="44" rx="16" ry="16" stroke="#ffffff" stroke-width="1" width="68" x="240" y="79"/>
<text font-family="Dialog" font-size="12" x="259" y="92">
Offen</text>
<line fill="#000000" stroke="#000000" stroke-width="1" x1="239" x2="308" y1="102" y2="102"/>
<polyline fill="none" points="271,31 271,78" stroke="#000000" stroke-width="1"/>
<line fill="#000000" stroke="#000000" stroke-width="1" x1="264" x2="271" y1="66" y2="78"/>
<line fill="#000000" stroke="#000000" stroke-width="1" x1="278" x2="271" y1="66" y2="78"/>
<text font-family="Dialog" font-size="12" x="289" y="57">
aufgabeErstellen()</text>
<rect fill="#00ff" height="46" rx="16" ry="16" stroke="#00ff" stroke-width="1" width="102" x="55" y="214"/>
<rect fill="#ffffff" height="46" rx="16" ry="16" stroke="#000000" stroke-width="1" width="102" x="55" y="214"/>
<rect fill="#ffffff" height="44" rx="16" ry="16" stroke="#ffffff" stroke-width="1" width="100" x="56" y="215"/>
<text font-family="Dialog" font-size="12" x="66" y="228">
In Bearbeitung</text>
<line fill="#000000" stroke="#000000" stroke-width="1" x1="55" x2="156" y1="238" y2="238"/>
<rect fill="#00ff" height="46" rx="16" ry="16" stroke="#00ff" stroke-width="1" width="86" x="415" y="214"/>
<rect fill="#ffffff" height="46" rx="16" ry="16" stroke="#000000" stroke-width="1" width="86" x="415" y="214"/>
<rect fill="#ffffff" height="44" rx="16" ry="16" stroke="#ffffff" stroke-width="1" width="84" x="416" y="215"/>
<text font-family="Dialog" font-size="12" x="421" y="228">
Geschlossen</text>
<line fill="#000000" stroke="#000000" stroke-width="1" x1="415" x2="500" y1="238" y2="238"/>
<rect fill="#00ff" height="46" rx="16" ry="16" stroke="#00ff" stroke-width="1" width="102" x="55" y="334"/>
<rect fill="#ffffff" height="46" rx="16" ry="16" stroke="#000000" stroke-width="1" width="102" x="55" y="334"/>
<rect fill="#ffffff" height="44" rx="16" ry="16" stroke="#ffffff" stroke-width="1" width="100" x="56" y="335"/>
<text font-family="Dialog" font-size="12" x="75" y="348">
Angehalten</text>
<line fill="#000000" stroke="#000000" stroke-width="1" x1="55" x2="156" y1="358" y2="358"/>
<polyline fill="none" points="239,123 156,214" stroke="#000000" stroke-width="1"/>
<line fill="#000000" stroke="#000000" stroke-width="1" x1="158" x2="156" y1="200" y2="214"/>
<line fill="#000000" stroke="#000000" stroke-width="1" x1="169" x2="156" y1="209" y2="214"/>
<text font-family="Dialog" font-size="12" x="110" y="141">
aufgabeZuweisen()</text>
<polyline fill="none" points="308,123 415,214" stroke="#000000" stroke-width="1"/>
<line fill="#000000" stroke="#000000" stroke-width="1" x1="401" x2="415" y1="211" y2="214"/>
<line fill="#000000" stroke="#000000" stroke-width="1" x1="410" x2="415" y1="200" y2="214"/>
<text font-family="Dialog" font-size="12" x="334" y="139">
aufgabeSchliessen()</text>
<polyline fill="none" points="156,246 415,246" stroke="#000000" stroke-width="1"/>
<line fill="#000000" stroke="#000000" stroke-width="1" x1="403" x2="415" y1="253" y2="246"/>
<line fill="#000000" stroke="#000000" stroke-width="1" x1="403" x2="415" y1="239" y2="246"/>
<text font-family="Dialog" font-size="12" x="228" y="241">
aufgabeSchliessen()</text>
<polyline fill="none" points="135,259 135,334" stroke="#000000" stroke-width="1"/>
<line fill="#000000" stroke="#000000" stroke-width="1" x1="128" x2="135" y1="322" y2="334"/>
<line fill="#000000" stroke="#000000" stroke-width="1" x1="142" x2="135" y1="322" y2="334"/>
<text font-family="Dialog" font-size="12" x="137" y="301">
anhalten()</text>
<polyline fill="none" points="79,334 79,259" stroke="#000000" stroke-width="1"/>
<line fill="#000000" stroke="#000000" stroke-width="1" x1="86" x2="79" y1="271" y2="259"/>
<line fill="#000000" stroke="#000000" stroke-width="1" x1="72" x2="79" y1="271" y2="259"/>
<text font-family="Dialog" font-size="12" x="15" y="302">
fortsetzen()</text>
</svg>
